<?xml version="1.0" standalone="no"?>
<!DOCTYPE svg PUBLIC "-//W3C//DTD SVG 20010904//EN"
 "http://www.w3.org/TR/2001/REC-SVG-20010904/DTD/svg10.dtd">
<svg version="1.0" xmlns="http://www.w3.org/2000/svg"
 width="200.000000pt" height="200.000000pt" viewBox="0 0 200.000000 200.000000"
 preserveAspectRatio="xMidYMid meet">

<g transform="translate(0.000000,200.000000) scale(0.100000,-0.100000)" fill="#FFF" stroke="none">
<path d="M875 1665 c-38 -8 -112 -35 -163 -60 -204 -101 -334 -292 -365 -537
-29 -233 78 -477 268 -613 128 -92 246 -130 400 -129 114 0 185 18 285 70 331
173 454 575 283 921 -42 87 -146 203 -230 259 -129 86 -321 121 -478 89z m288
-92 c246 -73 416 -308 417 -575 0 -166 -58 -307 -174 -422 -114 -114 -241
-169 -391 -169 -167 0 -298 54 -417 173 -162 161 -215 375 -148 595 81 263
328 438 593 419 37 -3 91 -12 120 -21z"/>
<path d="M954 1404 c-27 -64 -14 -94 92 -207 52 -56 94 -105 94 -110 0 -5 -59
-69 -130 -142 -142 -144 -145 -151 -62 -162 55 -7 83 10 197 128 168 173 167
185 -18 382 -73 77 -138 142 -145 145 -7 2 -19 -13 -28 -34z"/>
<path d="M873 720 c-40 -9 -60 -25 -79 -61 -31 -61 -35 -60 195 -57 192 3 211
5 231 23 26 23 53 81 45 95 -7 12 -345 12 -392 0z"/>
</g>
</svg>
